<?xml version="1.0" encoding="utf-8"?>
<svg version="1.1" id="Layer_1"
xmlns="http://www.w3.org/2000/svg"
xmlns:xlink="http://www.w3.org/1999/xlink"
width="670px" height="120px"
xml:space="preserve">
<g id="PathID_1" transform="matrix(0.760038, 0, 0, 0.988059, 588.05, 60.15)" opacity="1">
<path style="fill:#212529;fill-opacity:1" d="M-109.5 -61L109.5 -61L109.5 61L-109.5 61L-109.5 -61" />
</g>
<g id="PathID_2" transform="matrix(0.760038, 0, 0, 0.988059, 588.05, 60.15)" opacity="1">
</g>
<g id="PathID_3" transform="matrix(2.29751, 0, 0, 2.55963, 19.9, 104.05)" opacity="1">
<path style="fill:#212529;fill-opacity:1" d="M18.2 -0.1L1.6 -0.1L1.6 -34L18.2 -34Q24.05 -34 27.55 -28.6Q30.7 -23.75 30.7 -16.8Q30.7 -9.95 27.65 -5.3Q24.2 -0.1 18.2 -0.1M16.95 -7.45Q19.6 -7.45 21.25 -10.6Q22.7 -13.4 22.7 -17.4Q22.7 -21.3 21.3 -23.9Q19.7 -26.85 16.95 -26.85L9.1 -26.85L9.1 -7.45L16.95 -7.45" />
</g>
<g id="PathID_4" transform="matrix(2.29751, 0, 0, 2.55963, 19.9, 104.05)" opacity="1">
</g>
<g id="PathID_5" transform="matrix(2.41615, 0, 0, 2.38243, 89.1, 104.25)" opacity="1">
<path style="fill:#212529;fill-opacity:1" d="M23.5 -11.9Q23.5 -9.3 22.9 -7Q22.3 -4.7 20.85 -3Q19.4 -1.25 16.9 -0.25Q14.45 0.7 10.65 0.7Q7.15 0.7 4.65 -0.1Q2.15 -0.95 0.5 -2.1L3.15 -8.3Q4.65 -7.4 6.35 -6.75Q8.05 -6.1 10 -6.1Q12.95 -6.1 14.2 -7.5Q15.5 -8.95 15.5 -12.35L15.5 -35.45L23.5 -35.45L23.5 -11.9" />
</g>
<g id="PathID_6" transform="matrix(2.41615, 0, 0, 2.38243, 89.1, 104.25)" opacity="1">
</g>
<g id="PathID_7" transform="matrix(2.29751, 0, 0, 2.5595, 151.45, 104.3)" opacity="1">
<path style="fill:#212529;fill-opacity:1" d="M35.1 -0.1L27.05 -0.1L18.2 -26.2Q18.15 -26.6 17.65 -26.6Q17.1 -26.6 16.95 -26.2L8.25 -0.1L0.15 -0.1L3.1 -9.75L7.55 -23.35Q9.95 -30.4 10.5 -31.25Q11.55 -32.7 13.45 -33.45Q15.35 -34.2 17.6 -34.2Q19.85 -34.2 21.75 -33.45Q23.7 -32.7 24.65 -31.25Q25.3 -30.45 27.65 -23.35Q29.35 -18.4 32.05 -9.75L35.1 -0.1" />
</g>
<g id="PathID_8" transform="matrix(2.29751, 0, 0, 2.5595, 151.45, 104.3)" opacity="1">
</g>
<g id="PathID_9" transform="matrix(2.29751, 0, 0, 2.54214, 237.65, 105.2)" opacity="1">
<path style="fill:#212529;fill-opacity:1" d="M35.8 -6.95Q35.8 -3.7 33.15 -1.6Q30.65 0.35 27.15 0.35Q24.15 0.35 21.75 -1.2Q19.1 -2.95 18 -6.3Q17.75 -6.95 15.95 -13.5Q14.3 -19.65 13.1 -22.85Q11.45 -27.4 10.35 -27.25Q9.65 -27.1 9.4 -26.7Q9.1 -26.3 9.1 -25.55L9.1 -0.1L1.6 -0.1L1.6 -27.3Q1.6 -31.05 4.4 -33Q6.8 -34.65 10.6 -34.65Q15.65 -34.65 18.65 -29.55Q20.65 -26.2 22.45 -18.6Q24.45 -10.3 25.35 -8.25Q25.6 -7.75 26.05 -7.45Q26.45 -7.2 26.9 -7.2Q27.45 -7.2 27.85 -7.6Q28.25 -8.05 28.25 -8.85L28.25 -34.3L35.8 -34.3L35.8 -6.95" />
</g>
<g id="PathID_10" transform="matrix(2.29751, 0, 0, 2.54214, 237.65, 105.2)" opacity="1">
</g>
<g id="PathID_11" transform="matrix(2.48002, -0.0435422, 0, 2.54242, 325.1, 104.65)" opacity="1">
<path style="fill:#212529;fill-opacity:1" d="M30.2 -26.85L14.85 -26.85Q12.1 -26.85 10.5 -23.9Q9.1 -21.25 9.1 -17.4Q9.1 -13.4 10.55 -10.6Q12.15 -7.45 14.85 -7.45L17.8 -7.3L21.55 -7.3Q22.7 -7.3 23.4 -8.3Q24.05 -9.2 24.05 -10.5Q24.05 -11.7 23.4 -12.6Q22.75 -13.5 21.55 -13.5L17.8 -13.5L17.8 -20.8L22.75 -20.8Q27.05 -20.8 29.55 -17.6Q31.85 -14.65 31.85 -10.45Q31.85 -6.25 29.6 -3.35Q27.1 -0.1 22.75 -0.1L17.8 -0.1L13.6 -0.1Q7.6 -0.1 4.15 -5.3Q1.05 -9.95 1.05 -16.8Q1.05 -23.75 4.2 -28.6Q7.7 -34 13.6 -34L30.2 -34L30.2 -26.85" />
</g>
<g id="PathID_12" transform="matrix(2.48002, -0.0435422, 0, 2.54242, 325.1, 104.65)" opacity="1">
</g>
<g id="PathID_13" transform="matrix(2.29751, 0, 0, 2.58438, 409.8, 104.35)" opacity="1">
<path style="fill:#212529;fill-opacity:1" d="M23.75 -0.1L12.7 -0.1Q6.7 -0.1 3.25 -5.3Q0.15 -9.95 0.15 -16.8Q0.15 -23.75 3.3 -28.6Q6.8 -34 12.7 -34L23.75 -34Q29.65 -34 33.15 -28.6Q36.3 -23.75 36.3 -16.8Q36.3 -9.95 33.2 -5.3Q29.75 -0.1 23.75 -0.1M22.5 -7.45Q25.2 -7.45 26.8 -10.6Q28.3 -13.4 28.3 -17.4Q28.3 -21.25 26.85 -23.9Q25.3 -26.85 22.5 -26.85L13.95 -26.85Q11.2 -26.85 9.6 -23.9Q8.2 -21.25 8.2 -17.4Q8.2 -13.4 9.65 -10.6Q11.25 -7.45 13.95 -7.45L22.5 -7.45" />
</g>
<g id="PathID_14" transform="matrix(2.29751, 0, 0, 2.58438, 409.8, 104.35)" opacity="1">
</g>
<g id="PathID_15" transform="matrix(2.13265, 0, 0, 2.45473, 521.45, 101.9)" opacity="1">
<path style="fill:#FFFFFF;fill-opacity:1" d="M21.15 -13.5L13.95 -13.5Q11.15 -13.5 9.95 -11.6Q9.15 -10.35 9.15 -8.4L9.2 -7.7L9.25 -7.3L9.25 -0.1L1.85 -0.1L1.85 -2.45L1.85 -6.3L1.85 -11.35Q1.85 -15.4 3.85 -17.9Q6.2 -20.8 10.7 -20.8L19.9 -20.8Q21.2 -20.8 21.9 -21.75Q22.55 -22.55 22.55 -23.8Q22.55 -25 21.9 -25.9Q21.2 -26.85 19.9 -26.85L1.85 -26.85L1.85 -34L21.15 -34Q25.5 -34 28 -30.8Q30.3 -27.9 30.3 -23.75Q30.3 -19.55 28.05 -16.7Q25.5 -13.5 21.15 -13.5" />
</g>
<g id="PathID_16" transform="matrix(2.13265, 0, 0, 2.45473, 521.45, 101.9)" opacity="1">
</g>
<g id="PathID_17" transform="matrix(2.13265, 0, 0, 2.45473, 589.05, 101.9)" opacity="1">
<path style="fill:#FFFFFF;fill-opacity:1" d="M34.05 -33.8L20.3 -12.45L20.3 -0.1L12.75 -0.1L12.75 -12.45L-0.85 -33.8L7.85 -33.8L16 -21.3Q16.05 -20.9 16.55 -20.9Q17.1 -20.9 17.3 -21.3L25.25 -33.8L34.05 -33.8" />
</g>
<g id="PathID_18" transform="matrix(2.13265, 0, 0, 2.45473, 589.05, 101.9)" opacity="1">
</g>
</svg>
